<svg width="50" height="43" viewBox="0 0 50 43" fill="none" xmlns="http://www.w3.org/2000/svg">
<path d="M0.912335 17.8793C-0.143846 11.8967 3.84982 6.19059 9.83244 5.13441L33.7476 0.912397C39.7302 -0.143785 45.4363 3.84988 46.4924 9.8325L49.2089 25.2196C50.2651 31.2022 46.2714 36.9082 40.2888 37.9644L16.3737 42.1864C10.3911 43.2426 4.68497 39.249 3.62879 33.2663L0.912335 17.8793Z" fill="white" style="fill:white;fill-opacity:1;"/>
<path fill-rule="evenodd" clip-rule="evenodd" d="M0.912335 17.8793L3.62879 33.2663C3.65782 33.4307 3.69035 33.5936 3.72631 33.755C4.99879 39.4646 10.5555 43.2136 16.3737 42.1864L40.2888 37.9644C45.8136 36.9891 49.6422 32.0482 49.364 26.5862C49.341 26.1335 49.2897 25.6774 49.2089 25.2196L46.4924 9.8325C45.4363 3.84988 39.7302 -0.143785 33.7476 0.912397L9.83244 5.13441C9.51432 5.19057 9.20182 5.25988 8.89541 5.34168C3.43938 6.79821 -0.0876845 12.2148 0.912335 17.8793ZM33.9214 1.89717L10.0063 6.11918C5.6553 6.88732 2.90649 11.919 3.86665 17.3577L6.58311 32.7448C7.25522 36.5519 11.3273 39.0155 15.6783 38.2474L39.5934 34.0253C45.0321 33.0652 48.8962 29.2005 48.2241 25.3934L45.5077 10.0063C44.5475 4.56761 39.3602 0.937002 33.9214 1.89717Z" fill="black" style="fill:black;fill-opacity:1;"/>
<path d="M32.8237 9.51898C32.6317 8.43123 33.3578 7.39376 34.4456 7.20173L35.7996 6.96268C36.8874 6.77065 37.9248 7.49677 38.1169 8.58452L39.2904 15.2317C39.4824 16.3195 38.7563 17.3569 37.6685 17.549L36.3145 17.788C35.2267 17.9801 34.1893 17.2539 33.9972 16.1662L32.8237 9.51898Z" fill="#1B1B1B" style="fill:#1B1B1B;fill:color(display-p3 0.1067 0.1067 0.1067);fill-opacity:1;"/>
<path d="M22.2374 11.3879C22.0454 10.3001 22.7715 9.26268 23.8593 9.07065L25.2133 8.8316C26.3011 8.63957 27.3385 9.36569 27.5306 10.4534L28.7041 17.1006C28.8961 18.1884 28.17 19.2259 27.0823 19.4179L25.7282 19.6569C24.6404 19.849 23.603 19.1229 23.4109 18.0351L22.2374 11.3879Z" fill="#1B1B1B" style="fill:#1B1B1B;fill:color(display-p3 0.1067 0.1067 0.1067);fill-opacity:1;"/>
<path fill-rule="evenodd" clip-rule="evenodd" d="M18.8096 22.8881C20.1693 22.6481 21.4661 23.5558 21.7061 24.9154C21.8962 25.9919 22.9228 26.7104 23.9993 26.5204L33.7034 24.8072C35.063 24.5672 36.3599 25.4748 36.5999 26.8345C36.84 28.1942 35.9323 29.491 34.5726 29.7311L24.8685 31.4442C21.0727 32.1144 17.4524 29.5805 16.7823 25.7847C16.5422 24.425 17.4499 23.1282 18.8096 22.8881Z" fill="black" style="fill:black;fill-opacity:1;"/>
</svg>
